<?xml version="1.0" encoding="UTF-8"?>
<svg xmlns="http://www.w3.org/2000/svg" xmlns:xlink="http://www.w3.org/1999/xlink" width="247px" height="43px" viewBox="0 0 254 43" version="1.1">
<g id="surface1">
<path style=" stroke:none;fill-rule:nonzero;fill:rgb(30.19608%,65.098041%,100%);fill-opacity:1;" d="M 23.605469 0.269531 C 30.929688 0.269531 36.921875 6.285156 36.921875 13.632812 C 36.921875 17.375 35.457031 20.71875 33.058594 23.121094 C 32.261719 23.925781 31.195312 24.324219 30.128906 24.324219 C 27.734375 24.324219 25.867188 22.453125 25.867188 20.183594 C 25.867188 19.113281 26.402344 18.042969 27.199219 17.242188 C 28 16.308594 28.664062 15.105469 28.664062 13.632812 C 28.664062 10.960938 26.402344 8.6875 23.605469 8.6875 C 20.808594 8.6875 18.542969 10.960938 18.542969 13.632812 C 18.542969 15.105469 19.074219 16.308594 20.007812 17.242188 C 20.808594 18.042969 21.207031 19.113281 21.207031 20.183594 C 21.207031 22.589844 19.339844 24.460938 17.078125 24.460938 C 15.878906 24.460938 14.945312 23.925781 14.148438 23.121094 C 11.75 20.71875 10.152344 17.375 10.152344 13.632812 C 10.152344 6.285156 16.144531 0.269531 23.605469 0.269531 Z M 23.605469 0.269531 "/>
<path style=" stroke:none;fill-rule:nonzero;fill:rgb(30.19608%,65.098041%,100%);fill-opacity:1;" d="M 43.980469 35.6875 C 40.253906 42.101562 32.128906 44.371094 25.734375 40.765625 C 22.539062 38.894531 20.40625 35.953125 19.609375 32.746094 C 19.339844 31.675781 19.476562 30.472656 20.007812 29.539062 C 21.207031 27.535156 23.738281 26.730469 25.734375 27.933594 C 26.800781 28.46875 27.332031 29.402344 27.597656 30.472656 C 28 31.675781 28.796875 32.746094 29.996094 33.414062 C 32.394531 34.882812 35.457031 33.949219 36.789062 31.542969 C 38.253906 29.136719 37.457031 26.0625 35.058594 24.726562 C 33.859375 24.058594 32.527344 23.925781 31.195312 24.191406 C 30.261719 24.460938 29.066406 24.324219 28 23.792969 C 26.132812 22.722656 25.46875 20.183594 26.535156 18.179688 C 27.199219 17.109375 28.132812 16.441406 29.199219 16.171875 C 32.527344 15.238281 36.125 15.503906 39.320312 17.375 C 45.714844 20.984375 47.84375 29.136719 43.980469 35.6875 Z M 43.980469 35.6875 "/>
<path style=" stroke:none;fill-rule:nonzero;fill:rgb(10.196079%,55.29412%,100%);fill-opacity:1;" d="M 31.195312 24.191406 C 30.261719 24.460938 29.066406 24.324219 28 23.792969 C 26.132812 22.722656 25.46875 20.183594 26.535156 18.179688 C 27.199219 17.109375 28.132812 16.441406 29.199219 16.171875 C 31.59375 15.503906 34.257812 15.503906 36.65625 16.308594 C 36.257812 18.980469 34.925781 21.386719 33.058594 23.121094 C 32.527344 23.65625 31.996094 24.058594 31.195312 24.191406 Z M 31.195312 24.191406 "/>
<path style=" stroke:none;fill-rule:nonzero;fill:rgb(30.19608%,65.098041%,100%);fill-opacity:1;" d="M 3.226562 35.953125 C 7.089844 42.367188 15.210938 44.507812 21.605469 40.765625 C 24.800781 38.894531 26.800781 35.820312 27.734375 32.613281 C 28 31.542969 27.867188 30.339844 27.199219 29.402344 C 26 27.398438 23.46875 26.730469 21.472656 27.933594 C 20.539062 28.46875 19.875 29.402344 19.609375 30.472656 C 19.339844 31.675781 18.542969 32.878906 17.34375 33.546875 C 14.945312 34.882812 11.882812 34.082031 10.417969 31.675781 C 8.953125 29.269531 9.753906 26.195312 12.148438 24.859375 C 13.347656 24.058594 14.679688 23.925781 16.011719 24.324219 L 16.011719 24.191406 C 17.078125 24.59375 18.144531 24.460938 19.207031 23.792969 C 21.074219 22.722656 21.738281 20.050781 20.539062 18.179688 C 20.007812 17.109375 19.074219 16.441406 18.011719 16.171875 C 14.679688 15.371094 11.085938 15.773438 7.886719 17.644531 C 1.496094 21.386719 -0.503906 29.539062 3.226562 35.953125 Z M 3.226562 35.953125 "/>
<path style=" stroke:none;fill-rule:nonzero;fill:rgb(10.196079%,55.29412%,100%);fill-opacity:1;" d="M 23.605469 39.292969 C 25.601562 37.421875 27.066406 35.152344 27.734375 32.613281 C 27.867188 31.945312 27.867188 31.140625 27.734375 30.472656 C 27.734375 30.472656 27.597656 30.472656 27.597656 30.472656 C 27.332031 29.402344 26.800781 28.46875 25.734375 27.933594 C 23.738281 26.730469 21.207031 27.535156 20.007812 29.539062 C 19.476562 30.472656 19.339844 31.675781 19.609375 32.746094 C 20.273438 35.152344 21.605469 37.558594 23.605469 39.292969 Z M 23.605469 39.292969 "/>
<path style=" stroke:none;fill-rule:nonzero;fill:rgb(10.196079%,55.29412%,100%);fill-opacity:1;" d="M 16.011719 24.324219 L 16.011719 24.191406 C 17.078125 24.59375 18.144531 24.460938 19.207031 23.792969 C 21.074219 22.722656 21.738281 20.050781 20.539062 18.179688 C 20.007812 17.109375 19.074219 16.441406 18.011719 16.171875 C 15.613281 15.503906 12.949219 15.636719 10.550781 16.441406 C 11.085938 18.980469 12.28125 21.386719 14.148438 23.121094 C 14.679688 23.65625 15.210938 24.058594 16.011719 24.324219 Z M 16.011719 24.324219 "/>
<path style="fill-rule:evenodd;fill:rgb(0%,0%,0%);fill-opacity:1;stroke-width:0.885827;stroke-linecap:round;stroke-linejoin:miter;stroke:rgb(0%,0%,0%);stroke-opacity:1;stroke-miterlimit:4;" d="M 351.509625 42.918349 L 351.509625 74.020439 L 336.129637 74.020439 L 336.129637 45.50236 C 336.144105 44.202524 336.042826 42.887028 335.81133 41.602853 C 334.95769 36.951634 332.39677 34.618195 328.12857 34.618195 C 326.030641 34.586873 324.019524 35.463871 322.63055 37.029938 C 322.370117 37.31183 322.138622 37.593722 321.921595 37.891275 C 320.330063 40.068108 319.534296 42.793064 319.534296 46.050483 L 319.534296 74.020439 L 304.096434 74.020439 L 304.096434 45.220468 C 304.110903 43.936293 304.009623 42.652118 303.778128 41.383604 C 302.982362 37.09258 300.667406 34.853105 296.862197 34.633855 C 296.64517 34.618195 296.442611 34.618195 296.240053 34.618195 C 295.12598 34.602534 294.011908 34.821783 292.984646 35.260282 C 291.856105 35.761424 290.85778 36.544457 290.018609 37.609383 C 289.989672 37.656365 289.946266 37.703347 289.917329 37.750329 C 289.107095 38.830915 288.513887 40.052447 288.166644 41.367943 C 287.747058 42.793064 287.544499 44.421774 287.544499 46.238411 L 287.544499 74.020439 L 272.121106 74.020439 L 272.121106 24.015921 L 287.544499 24.015921 L 287.544499 31.830595 L 287.747058 31.830595 C 289.222842 29.387531 291.248429 27.320323 293.664664 25.801238 C 293.925097 25.62897 294.185529 25.472364 294.46043 25.315757 C 297.325188 23.640065 300.595063 22.778729 303.908344 22.81005 C 305.890525 22.778729 307.858238 23.076281 309.739139 23.671387 C 313.327321 24.861598 316.047394 27.289001 317.870422 30.937937 C 318.058512 31.329454 318.246602 31.720971 318.405755 32.128148 C 319.809197 29.763387 321.690099 27.696179 323.932713 26.09879 C 326.60938 24.203849 329.763508 23.138924 333.366158 22.872693 C 333.973834 22.825711 334.595978 22.81005 335.203654 22.81005 C 345.129028 22.81005 350.525769 28.400909 351.393877 39.582627 C 351.480688 40.694534 351.509625 41.806442 351.509625 42.918349 Z M 187.408188 47.506926 L 206.593385 74.020439 L 188.088206 74.020439 L 172.11501 49.213939 L 171.92692 49.213939 L 171.92692 74.020439 L 156.489058 74.020439 L 156.489058 -0.00754554 L 171.92692 -0.00754554 L 171.92692 47.115409 L 172.11501 47.115409 L 187.017539 24.015921 L 205.320159 24.015921 Z M 620.753466 43.40383 L 620.753466 74.020439 L 605.373478 74.020439 L 605.373478 46.238411 C 605.387946 44.875933 605.272198 43.497794 605.055171 42.150977 C 604.201531 37.249187 601.65508 34.74348 597.401348 34.618195 C 597.300069 34.618195 597.184321 34.618195 597.068573 34.618195 C 595.737474 34.602534 594.420842 34.900087 593.219959 35.479531 C 592.16376 36.027655 591.237778 36.779367 590.485417 37.687686 C 589.241129 39.19111 588.416425 40.992087 588.112588 42.902689 C 587.953434 43.764026 587.881092 44.641023 587.89556 45.50236 L 587.89556 74.020439 L 572.457698 74.020439 L 572.457698 24.015921 L 587.89556 24.015921 L 587.89556 31.94022 L 588.083651 31.94022 C 589.356876 29.763387 591.035219 27.837125 593.031869 26.286718 C 596.099185 23.968939 599.803115 22.81005 604.143657 22.81005 C 614.199247 22.81005 619.682799 28.463552 620.608781 39.786216 C 620.71006 40.992087 620.753466 42.197959 620.753466 43.40383 Z M 737.398307 -0.00754554 L 737.398307 74.020439 L 721.974913 74.020439 L 721.974913 67.145405 L 721.772354 67.145405 C 719.124624 71.452089 714.668333 74.333652 709.662241 75.007061 C 708.548169 75.163668 707.419628 75.241971 706.305555 75.241971 C 703.831446 75.273293 701.386274 74.881776 699.042381 74.067421 C 696.004001 72.971174 693.298397 71.107554 691.214936 68.633169 C 689.174882 66.237086 687.684629 63.433826 686.830989 60.411317 C 686.194376 58.250145 685.789258 55.869723 685.601168 53.285713 C 685.528826 52.236448 685.499889 51.187183 685.499889 50.153579 C 685.485421 47.36598 685.745853 44.594041 686.310124 41.869085 C 687.279511 37.32749 689.102539 33.459305 691.793675 30.280189 C 695.454199 25.816898 700.822003 23.123263 706.580456 22.857032 C 707.144727 22.825711 707.723466 22.81005 708.302205 22.81005 C 714.740676 22.81005 719.240371 25.112168 721.772354 29.732066 L 721.974913 29.732066 L 721.974913 -0.00754554 Z M 379.34697 68.210331 L 379.144411 68.210331 L 379.144411 97.025962 L 363.721017 97.025962 L 363.721017 24.015921 L 379.144411 24.015921 L 379.144411 31.548703 L 379.34697 31.548703 C 380.750412 29.340549 382.558971 27.429947 384.700305 25.926523 C 387.709748 23.843654 391.283461 22.81005 395.406976 22.81005 C 397.577248 22.778729 399.73305 23.076281 401.816511 23.671387 C 405.231071 24.642348 408.240513 26.678235 410.425253 29.465834 C 412.306155 31.877577 413.68066 34.633855 414.476426 37.578061 C 415.301129 40.553588 415.720715 43.889311 415.720715 47.60089 C 415.735183 50.404149 415.47475 53.207409 414.924948 55.948026 C 414.187056 59.502998 412.957236 62.635132 411.206551 65.375749 C 410.700154 66.174444 410.150352 66.941816 409.542676 67.677868 C 406.012368 72.141159 400.731375 74.866115 395.045265 75.179329 C 394.394183 75.226311 393.75757 75.241971 393.120957 75.241971 C 391.051966 75.273293 389.011911 74.944419 387.058667 74.302331 C 383.890071 73.190424 381.169998 71.044912 379.34697 68.210331 Z M 26.909401 74.020439 L -0.0019616 74.020439 L -0.0019616 4.001586 L 25.49149 4.001586 C 30.569925 4.001586 34.895999 4.612352 38.440775 5.818224 C 40.234866 6.413329 41.942146 7.243344 43.504741 8.30827 C 45.342237 9.514141 46.861427 11.11153 47.9755 13.006471 C 49.190852 15.136322 49.798527 17.595047 49.798527 20.413967 C 49.798527 24.188189 48.525302 27.49259 45.97885 30.327171 C 43.41793 33.161752 40.148055 35.119336 36.183693 36.231244 L 36.183693 36.419172 C 38.136937 36.654082 40.061244 37.123902 41.89874 37.844293 C 44.242633 38.752611 46.369499 40.146411 48.120184 41.947388 C 51.10069 45.001218 52.590943 48.728458 52.590943 53.129106 C 52.61988 55.509528 52.2437 57.889949 51.491339 60.160747 C 50.391735 63.386844 48.380617 66.252747 45.703949 68.382598 C 43.171966 70.418485 40.249334 71.906249 37.124144 72.736264 C 34.100233 73.597601 30.685673 74.020439 26.909401 74.020439 Z M 107.513272 46.927481 L 107.513272 53.410998 L 74.901331 53.410998 C 75.393259 60.301693 79.531242 63.919307 87.286345 64.279503 C 87.734867 64.295163 88.18339 64.310824 88.617444 64.310824 C 91.351986 64.326485 94.072059 63.966289 96.71979 63.230238 C 98.976872 62.603811 101.132675 61.64851 103.129324 60.395657 L 103.129324 71.530393 C 100.973522 72.657961 98.673034 73.519298 96.300204 74.067421 C 94.144402 74.584223 91.78604 74.928758 89.254057 75.101025 C 87.879552 75.194989 86.490579 75.241971 85.101605 75.241971 C 82.555154 75.257632 80.008702 75.007061 77.505656 74.474598 C 74.134501 73.722886 71.197401 72.423051 68.708824 70.590752 C 67.855184 69.964326 67.059417 69.275256 66.307057 68.523544 C 63.485704 65.657642 61.503523 62.071348 60.577541 58.14052 C 59.984333 55.822741 59.666027 53.270052 59.622622 50.513774 C 59.622622 50.278864 59.622622 50.043954 59.622622 49.809044 C 59.622622 41.508889 62.024388 34.931408 66.84239 30.0766 C 71.428897 25.3784 77.722683 22.747407 84.29137 22.81005 C 84.39265 22.81005 84.508398 22.81005 84.624145 22.81005 C 86.95357 22.778729 89.282994 23.04496 91.554545 23.577423 C 95.38869 24.423099 98.861124 26.427665 101.537792 29.293567 C 105.400875 33.490626 107.397524 39.144128 107.513272 46.254072 C 107.513272 46.473321 107.513272 46.692571 107.513272 46.927481 Z M 470.657512 46.927481 L 470.657512 53.410998 L 438.031102 53.410998 C 438.537499 60.301693 442.661014 63.919307 450.430585 64.279503 C 450.864639 64.295163 451.313162 64.310824 451.761684 64.310824 C 454.496226 64.326485 457.216299 63.966289 459.849562 63.230238 C 462.106644 62.603811 464.262446 61.64851 466.259096 60.395657 L 466.259096 71.530393 C 464.103293 72.657961 461.802806 73.519298 459.429976 74.067421 C 457.274173 74.584223 454.93028 74.928758 452.383829 75.101025 C 451.009324 75.194989 449.62035 75.241971 448.245845 75.241971 C 445.684925 75.257632 443.138474 75.007061 440.635428 74.474598 C 437.264273 73.722886 434.327173 72.423051 431.838595 70.590752 C 430.984955 69.964326 430.189189 69.275256 429.436828 68.523544 C 426.615476 65.657642 424.633295 62.071348 423.707312 58.14052 C 423.128573 55.822741 422.810267 53.270052 422.766862 50.513774 C 422.752393 50.278864 422.752393 50.043954 422.752393 49.809044 C 422.752393 41.508889 425.168628 34.931408 429.98663 30.0766 C 434.558668 25.3784 440.866923 22.747407 447.421142 22.81005 C 447.53689 22.81005 447.638169 22.81005 447.753917 22.81005 C 450.083341 22.778729 452.412766 23.04496 454.684316 23.577423 C 458.518462 24.423099 462.005364 26.427665 464.667564 29.293567 C 468.545115 33.490626 470.527296 39.144128 470.643044 46.254072 C 470.657512 46.473321 470.657512 46.692571 470.657512 46.927481 Z M 563.284685 46.927481 L 563.284685 53.410998 L 530.658276 53.410998 C 531.150204 60.301693 535.288187 63.919307 543.057758 64.279503 C 543.491812 64.295163 543.940335 64.310824 544.388858 64.310824 C 547.123399 64.326485 549.843473 63.966289 552.476735 63.230238 C 554.733817 62.603811 556.88962 61.64851 558.886269 60.395657 L 558.886269 71.530393 C 556.730466 72.657961 554.429979 73.519298 552.057149 74.067421 C 549.901347 74.584223 547.557454 74.928758 545.011002 75.101025 C 543.636497 75.194989 542.247524 75.241971 540.873018 75.241971 C 538.312098 75.257632 535.765647 75.007061 533.262601 74.474598 C 529.891446 73.722886 526.954346 72.423051 524.465768 70.590752 C 523.612128 69.964326 522.816362 69.275256 522.064002 68.523544 C 519.242649 65.657642 517.260468 62.071348 516.334486 58.14052 C 515.755747 55.822741 515.43744 53.270052 515.394035 50.513774 C 515.379567 50.278864 515.379567 50.043954 515.379567 49.809044 C 515.379567 41.508889 517.795802 34.931408 522.613804 30.0766 C 527.185842 25.3784 533.494097 22.747407 540.048315 22.81005 C 540.164063 22.81005 540.265343 22.81005 540.38109 22.81005 C 542.710515 22.778729 545.039939 23.04496 547.31149 23.577423 C 551.145635 24.423099 554.632538 26.427665 557.294737 29.293567 C 561.172288 33.490626 563.154469 39.144128 563.270217 46.254072 C 563.284685 46.473321 563.284685 46.692571 563.284685 46.927481 Z M 510.055168 62.008706 L 510.055168 73.440994 C 508.000645 74.52158 504.991202 75.132347 501.02684 75.226311 C 500.607254 75.241971 500.1732 75.241971 499.753614 75.241971 C 488.88779 75.241971 483.447643 69.60413 483.447643 58.297127 L 483.447643 35.401228 L 475.345298 35.401228 L 475.345298 24.015921 L 483.447643 24.015921 L 483.447643 13.22572 L 498.827632 8.840733 L 498.827632 24.015921 L 510.055168 24.015921 L 510.055168 35.401228 L 498.827632 35.401228 L 498.827632 55.619152 C 498.813163 56.574453 498.899974 57.529754 499.088064 58.469394 C 499.681272 61.4136 501.316209 63.04231 504.007346 63.371184 C 504.340121 63.402505 504.687364 63.433826 505.034607 63.433826 C 506.032932 63.418166 507.031257 63.245898 507.986176 62.932685 C 508.695131 62.682114 509.389618 62.384562 510.055168 62.008706 Z M 149.312695 23.734029 L 149.312695 37.938257 C 148.053937 37.264848 146.679432 36.810688 145.261522 36.6071 C 144.451287 36.481814 143.641053 36.419172 142.81635 36.419172 C 141.615466 36.419172 140.414583 36.591439 139.257105 36.982956 C 137.549825 37.562401 136.045104 38.658647 134.959968 40.11509 C 133.99058 41.399265 133.267156 42.871367 132.847571 44.421774 C 132.514796 45.580663 132.297769 46.849177 132.196489 48.211656 C 132.153084 48.853743 132.124147 49.495831 132.124147 50.153579 L 132.124147 74.020439 L 116.700753 74.020439 L 116.700753 24.015921 L 132.124147 24.015921 L 132.124147 33.302698 L 132.326706 33.302698 C 132.919913 31.595685 133.730148 29.982636 134.757409 28.510534 C 137.231518 25.049526 140.675015 23.264209 145.073432 23.154585 C 145.218116 23.138924 145.362801 23.138924 145.507486 23.138924 C 145.984946 23.138924 146.462405 23.170245 146.925396 23.201567 C 147.865847 23.27987 148.632676 23.452137 149.254821 23.702708 C 149.269289 23.718369 149.298226 23.718369 149.312695 23.734029 Z M 215.158722 68.241652 C 215.448091 68.523544 215.751929 68.789775 216.055767 69.056007 C 220.729084 73.190424 226.993934 75.241971 234.80691 75.241971 C 237.541452 75.257632 240.247057 74.97574 242.909256 74.396295 C 247.394483 73.440994 251.532467 71.23284 254.81681 68.022403 C 257.956469 64.890269 260.155677 60.928119 261.168471 56.621435 C 261.819552 53.912139 262.137858 51.12454 262.108921 48.336941 C 262.108921 46.67691 261.993174 45.001218 261.74721 43.356848 C 261.067191 38.220149 258.694361 33.459305 255.033837 29.810369 C 254.729999 29.528477 254.44063 29.246585 254.136792 28.964693 C 249.492412 24.861598 243.285436 22.81005 235.501397 22.81005 C 232.665576 22.778729 229.844223 23.091942 227.080745 23.702708 C 222.725734 24.658009 218.68903 26.772199 215.433623 29.810369 C 210.485405 34.477249 208.011295 40.945105 208.011295 49.213939 C 207.996827 51.469075 208.199386 53.708551 208.63344 55.916705 C 209.501548 60.583585 211.773099 64.890269 215.158722 68.241652 Z M 675.487705 24.015921 L 675.487705 74.020439 L 660.064311 74.020439 L 660.064311 24.015921 Z M 235.212027 34.618195 C 231.565972 34.618195 228.730151 35.871048 226.704564 38.376755 C 225.735177 39.613948 224.997284 41.039069 224.548762 42.542493 C 224.18705 43.717044 223.941086 44.985558 223.81087 46.379357 C 223.724059 47.256355 223.680653 48.149013 223.680653 49.026011 C 223.666185 50.780006 223.825338 52.549661 224.158113 54.287995 C 225.272185 59.659605 228.281628 62.666454 233.215378 63.29288 C 233.909865 63.386844 234.604351 63.433826 235.298838 63.433826 C 242.692229 63.433826 246.38169 58.500716 246.38169 48.634494 C 246.410627 46.91182 246.251473 45.204807 245.918698 43.513455 C 244.848031 38.235809 241.896463 35.291603 237.063992 34.727819 C 236.441848 34.649516 235.819703 34.618195 235.212027 34.618195 Z M 378.912916 47.710514 L 378.912916 51.703985 C 378.898447 52.972499 379.028663 54.225353 379.318033 55.446885 C 379.72315 57.185219 380.504448 58.798268 381.647457 60.160747 C 383.210052 62.087009 385.51054 63.261559 387.999118 63.402505 C 388.274019 63.418166 388.54892 63.433826 388.823821 63.433826 C 390.097046 63.449487 391.370272 63.230238 392.571155 62.8074 C 394.365246 62.133991 395.913373 60.928119 396.998509 59.346392 C 398.445356 57.326165 399.35687 54.663852 399.718582 51.35945 C 399.848798 50.1849 399.906672 48.994689 399.906672 47.804478 C 399.906672 39.64527 396.955103 35.275943 391.066434 34.680837 C 390.603443 34.633855 390.125983 34.618195 389.648524 34.618195 C 388.216145 34.602534 386.783766 34.884426 385.467134 35.463871 C 384.092629 36.090298 382.862809 37.029938 381.90789 38.204488 C 380.692538 39.692252 379.838898 41.430586 379.404844 43.294206 C 379.101006 44.500077 378.941853 45.831234 378.912916 47.256355 C 378.912916 47.412962 378.912916 47.553908 378.912916 47.710514 Z M 722.264283 49.699419 L 722.264283 45.940859 C 722.278751 44.625362 722.105129 43.325527 721.743417 42.057013 C 721.294895 40.506606 720.499129 39.065825 719.428462 37.844293 C 717.73565 35.871048 715.290478 34.712159 712.686152 34.633855 C 712.483594 34.618195 712.266567 34.618195 712.064008 34.618195 C 710.776314 34.602534 709.48862 34.821783 708.287736 35.275943 C 706.609393 35.91803 705.191483 37.045598 704.048473 38.642987 C 702.529283 40.788498 701.603301 43.544776 701.299463 46.943142 C 701.212652 47.867121 701.169247 48.791101 701.169247 49.699419 C 701.169247 50.983594 701.256058 52.267769 701.444148 53.536283 C 701.849265 56.120294 702.673968 58.234484 703.961662 59.863194 C 705.553195 61.946063 707.96943 63.230238 710.573755 63.386844 C 710.935467 63.418166 711.311647 63.433826 711.673359 63.433826 C 714.32109 63.480808 716.853073 62.400222 718.647164 60.442639 C 718.87866 60.192068 719.095687 59.941497 719.312714 59.675266 C 720.426786 58.234484 721.222552 56.590114 721.656607 54.820458 C 721.989382 53.567605 722.177472 52.220787 722.249814 50.748684 C 722.264283 50.404149 722.264283 50.059615 722.264283 49.699419 Z M 24.420823 43.951954 L 15.768676 43.951954 L 15.768676 62.400222 L 24.319544 62.400222 C 27.965599 62.400222 30.815889 61.554546 32.884881 59.863194 C 34.953873 58.171842 35.981134 55.854062 35.981134 52.925517 C 35.981134 50.122257 34.968341 47.929764 32.928286 46.332375 C 30.9027 44.734987 28.066879 43.951954 24.420823 43.951954 Z M 21.686282 15.621803 L 15.768676 15.621803 L 15.768676 32.222112 L 22.699075 32.222112 C 25.954482 32.222112 28.52987 31.439079 30.396303 29.857351 C 31.958898 28.541855 32.942755 26.678235 33.130845 24.658009 C 33.17425 24.21951 33.203187 23.781011 33.203187 23.342513 C 33.203187 19.082811 30.555456 16.577103 25.288932 15.856713 C 24.088048 15.700106 22.887165 15.621803 21.686282 15.621803 Z M 636.668788 74.772151 C 637.696049 75.101025 638.766717 75.257632 639.837384 75.241971 C 640.647618 75.241971 641.457853 75.179329 642.253619 75.022722 C 643.830683 74.74083 645.306467 74.0361 646.50735 72.971174 C 647.389927 72.203801 648.084414 71.23284 648.532937 70.152254 C 648.894649 69.196953 649.082739 68.163349 649.06827 67.145405 C 649.06827 66.988798 649.06827 66.847852 649.06827 66.706906 C 648.995928 64.671019 648.098883 62.744757 646.565224 61.397939 C 645.552431 60.489621 644.351548 59.847533 643.034917 59.502998 C 642.079997 59.252428 641.081672 59.127142 640.083348 59.127142 C 639.576951 59.127142 639.056086 59.158464 638.549689 59.221106 C 636.712193 59.424695 634.975976 60.176407 633.572534 61.382279 C 632.704426 62.10267 632.024407 63.010988 631.575885 64.028932 C 631.156299 65.015554 630.939272 66.064819 630.95374 67.145405 C 630.95374 68.116367 631.127362 69.102989 631.474605 70.011308 C 631.923128 71.123215 632.617615 72.109837 633.500192 72.892871 C 634.397237 73.738547 635.482373 74.380634 636.668788 74.772151 Z M 664.925718 15.731427 C 665.895106 15.997659 666.878962 16.122944 667.877287 16.107283 C 668.600711 16.122944 669.324135 16.060301 670.03309 15.919355 C 671.624622 15.653124 673.100406 14.948394 674.286821 13.867808 C 675.15493 13.084774 675.834948 12.113813 676.254534 11.033226 C 676.601777 10.093586 676.775399 9.106964 676.76093 8.104681 C 676.76093 7.963735 676.76093 7.822789 676.746462 7.681843 C 676.703057 5.661617 675.806011 3.766676 674.286821 2.435519 C 672.651884 0.979077 670.510549 0.243025 667.877287 0.243025 C 667.168332 0.243025 666.473845 0.305668 665.779358 0.415293 C 664.187826 0.681524 662.697573 1.370593 661.482221 2.435519 C 660.599644 3.202892 659.919626 4.142532 659.50004 5.223118 C 659.152797 6.147098 658.979175 7.118059 658.979175 8.104681 C 658.979175 9.044321 659.138329 9.983962 659.471103 10.860959 C 659.890689 11.988527 660.585176 12.99081 661.482221 13.789504 C 662.451609 14.713484 663.638024 15.371232 664.925718 15.731427 Z M 74.800051 43.951954 L 93.218419 43.951954 C 93.218419 37.468436 90.845589 33.929125 86.114398 33.302698 C 85.593533 33.240056 85.0582 33.208734 84.522866 33.208734 C 82.381532 33.193074 80.31254 34.03875 78.79335 35.557835 C 78.547386 35.792745 78.315891 36.027655 78.098863 36.278226 C 76.290304 38.329773 75.1907 40.882462 74.800051 43.951954 Z M 437.944291 43.951954 L 456.348191 43.951954 C 456.348191 37.468436 453.975361 33.929125 449.24417 33.302698 C 448.723305 33.240056 448.187971 33.208734 447.652638 33.208734 C 445.511303 33.193074 443.442312 34.03875 441.923122 35.557835 C 441.691626 35.792745 441.460131 36.027655 441.228635 36.278226 C 439.434544 38.329773 438.33494 40.882462 437.944291 43.951954 Z M 530.571465 43.951954 L 548.975364 43.951954 C 548.975364 37.468436 546.602534 33.929125 541.871343 33.302698 C 541.350478 33.240056 540.815145 33.208734 540.279811 33.208734 C 538.138477 33.193074 536.069485 34.03875 534.550295 35.557835 C 534.3188 35.792745 534.087304 36.027655 533.855808 36.278226 C 532.061718 38.329773 530.962113 40.882462 530.571465 43.951954 Z M 530.571465 43.951954 " transform="matrix(0.269984,0,0,0.249431,53.379436,11.759695)"/>
</g>
</svg>
